<?xml version="1.0" standalone="no"?>
<!DOCTYPE svg PUBLIC "-//W3C//DTD SVG 1.1//EN" "http://www.w3.org/Graphics/SVG/1.1/DTD/svg11.dtd" >
<svg xmlns="http://www.w3.org/2000/svg" xmlns:xlink="http://www.w3.org/1999/xlink" version="1.1">
<metadata>
Created by FontForge 20200427 at Mon Jul 12 00:50:56 2010
 By www
Created by Erikstormtrooper
</metadata>
<defs>
<font id="Mandalorian" horiz-adv-x="350" >
  <font-face 
    font-family="Mandalorian"
    font-weight="400"
    font-stretch="normal"
    units-per-em="1000"
    panose-1="0 0 0 0 0 0 0 0 0 0"
    ascent="800"
    descent="-200"
    x-height="898"
    cap-height="898"
    bbox="50 -50 734 900"
    underline-thickness="50"
    underline-position="-158"
    unicode-range="U+0020-201D"
  />
<missing-glyph horiz-adv-x="475" 
d="M50 0v701h375v-701h-375zM112 55h250v592h-250v-592z" />
    <glyph glyph-name=".notdef" horiz-adv-x="475" 
d="M50 0v701h375v-701h-375zM112 55h250v592h-250v-592z" />
    <glyph glyph-name=".null" horiz-adv-x="100" 
 />
    <glyph glyph-name="asterisk" unicode="*" horiz-adv-x="642" 
d="M358 156v-156h-75v154q-50 -70 -125 -154h-108q179 169 233 285q-9 21 -14 40q-37 125 0 250q5 19 14 40q-54 116 -233 285h108q75 -84 125 -154v154h75v-156q50 71 126 156h108q-179 -169 -233 -285q9 -21 15 -40q36 -125 0 -250q-6 -19 -15 -40q54 -116 233 -285h-108
q-76 85 -126 156z" />
    <glyph glyph-name="ampersand" unicode="&#x26;" horiz-adv-x="442" 
d="M392 600l-67 -600l-80 600l30 60v165l-25 30v45h112v-240zM290 0h-240v210l150 330l25 -127l-100 -213v-115h145z" />
    <glyph glyph-name="nonmarkingreturn" horiz-adv-x="100" 
 />
    <glyph glyph-name="space" unicode=" " horiz-adv-x="396" 
 />
    <glyph glyph-name="exclam" unicode="!" horiz-adv-x="271" 
d="M197 760l-67 -600l-80 600l30 60v80h87v-80zM69 0v152l152 -152h-152z" />
    <glyph glyph-name="quotedbl" unicode="&#x22;" horiz-adv-x="442" 
d="M202 888v-152l-152 152h152zM392 888v-152l-152 152h152z" />
    <glyph glyph-name="numbersign" unicode="#" horiz-adv-x="784" 
d="M542 0h-125v75h50v750h-50v75h125v-900zM242 900h125v-75h-50v-750h50v-75h-125v900zM592 509v75h142v-75h-142zM592 309v75h142v-75h-142zM50 309v75h142v-75h-142zM50 509v75h142v-75h-142z" />
    <glyph glyph-name="dollar" unicode="$" horiz-adv-x="442" 
d="M240 748v152l152 -152h-152zM100 703h250v-210l-150 -330v-163h-75v173l150 330v115h-175v85zM50 748v152l152 -152h-152z" />
    <glyph glyph-name="percent" unicode="%" horiz-adv-x="389" 
d="M242 900h75l-170 -900h-75zM202 900l-152 -152v152h152zM187 0l152 152v-152h-152z" />
    <glyph glyph-name="quotesingle" unicode="'" horiz-adv-x="252" 
d="M202 888l-152 -152v152h152z" />
    <glyph glyph-name="parenleft" unicode="(" horiz-adv-x="442" 
d="M392 900q-212 -200 -248.5 -325t0 -250t248.5 -325h-108q-179 200 -215 325q-19 63 -19 125q0 63 19 125q36 125 215 325h108z" />
    <glyph glyph-name="parenright" unicode=")" horiz-adv-x="442" 
d="M158 900q179 -200 216 -325q18 -62 18 -125q0 -62 -18 -125q-37 -125 -216 -325h-108q212 200 248.5 325t0 250t-248.5 325h108z" />
    <glyph glyph-name="comma" unicode="," horiz-adv-x="252" 
d="M202 102l-152 -152v152h152z" />
    <glyph glyph-name="hyphen" unicode="-" horiz-adv-x="342" 
d="M50 364v75h242v-75h-242z" />
    <glyph glyph-name="period" unicode="." horiz-adv-x="200" 
d="M150 100v-100h-100v100h100z" />
    <glyph glyph-name="slash" unicode="/" horiz-adv-x="345" 
d="M220 900h75l-170 -900h-75z" />
    <glyph glyph-name="zero" unicode="0" horiz-adv-x="380" 
d="M50 900h125v-75h-50v-750h50v-75h-125v900zM330 0h-125v75h50v750h-50v75h125v-900z" />
    <glyph glyph-name="one" unicode="1" horiz-adv-x="175" 
d="M50 900h75v-900h-75v900z" />
    <glyph glyph-name="two" unicode="2" horiz-adv-x="330" 
d="M280 0h-75v825h-50v75h125v-900zM50 900h75v-900h-75v900z" />
    <glyph glyph-name="three" unicode="3" horiz-adv-x="380" 
d="M175 0h-75v825h-50v75h125v-900zM205 900h125v-75h-50v-825h-75v900z" />
    <glyph glyph-name="four" unicode="4" horiz-adv-x="380" 
d="M330 0h-75v825h-50v75h125v-900zM50 900h125v-75h-50v-825h-75v900z" />
    <glyph glyph-name="five" unicode="5" horiz-adv-x="380" 
d="M205 900h125v-75h-50v-750h50v-75h-125v900zM175 0h-125v75h50v750h-50v75h125v-900z" />
    <glyph glyph-name="six" unicode="6" horiz-adv-x="225" 
d="M50 900h125v-75h-50v-750h50v-75h-125v900z" />
    <glyph glyph-name="seven" unicode="7" horiz-adv-x="380" 
d="M175 0h-125v75h50v825h75v-900zM205 900h75v-825h50v-75h-125v900z" />
    <glyph glyph-name="eight" unicode="8" horiz-adv-x="225" 
d="M50 900h75v-825h50v-75h-125v900z" />
    <glyph glyph-name="nine" unicode="9" horiz-adv-x="380" 
d="M205 900h125v-75h-50v-825h-75v900zM50 900h75v-825h50v-75h-125v900z" />
    <glyph glyph-name="colon" unicode=":" horiz-adv-x="200" 
d="M150 340v-100h-100v100h100zM150 100v-100h-100v100h100z" />
    <glyph glyph-name="semicolon" unicode=";" horiz-adv-x="252" 
d="M150 340v-100h-100v100h100zM202 102l-152 -152v152h152z" />
    <glyph glyph-name="question" unicode="?" horiz-adv-x="353" 
d="M53 900h250v-210l-150 -330v-163h-75v173l150 330v115h-175v85zM50 0l152 152v-152h-152z" />
    <glyph glyph-name="at" unicode="@" 
d="M300 0h-250v160l150 270v470h75v-480l-150 -270v-65h175v-85zM80 677l62 223h13v-474l-75 80v171z" />
    <glyph glyph-name="A" unicode="A" horiz-adv-x="295" 
d="M155 130l30 770h10l39 -819h11v-81h-15q-75 0 -75 57v73zM112 840h13v-630h-37v105h-38z" />
    <glyph glyph-name="B" unicode="B" horiz-adv-x="305" 
d="M175 0h-75v88l-50 292h50v445h-50v75h170l-45 -75v-225h80v-75h-80v-525z" />
    <glyph glyph-name="C" unicode="C" horiz-adv-x="425" 
d="M300 0h-250v210l150 330v360h75v-60l100 20v-75l-100 -20v-75h100v-75h-100v-85l-150 -330v-115h175v-85z" />
    <glyph glyph-name="D" unicode="D" horiz-adv-x="430" 
d="M50 900h75v-825h50v750h-25v75h125v-75h-25v-750h70l60 -75h-330v900z" />
    <glyph glyph-name="E" unicode="E" horiz-adv-x="312" 
d="M197 600l-67 -600l-80 600l30 60v165h-25v75l207 -75h-95v-165z" />
    <glyph glyph-name="F" unicode="F" horiz-adv-x="320" 
d="M80 650v175h-25v75h215v-160l-55 85h-60v-175h30l-67 -650l-68 650h30z" />
    <glyph glyph-name="G" unicode="G" horiz-adv-x="660" 
d="M50 165l152 152v-152h-152zM360 85h175v115l-150 330v370h75v-360l150 -330v-210h-250v85zM240 165l152 152v-152h-152z" />
    <glyph glyph-name="H" unicode="H" horiz-adv-x="651" 
d="M121 525h-70l-1 75h146v-40h320v115l70 -50v-575l-75 -50v485h-315v-485h-125l50 75v450zM449 736v152l152 -152h-152zM259 736v152l152 -152h-152zM69 736v152l152 -152h-152z" />
    <glyph glyph-name="I" unicode="I" horiz-adv-x="426" 
d="M233 227v671h75v-658h68l-1 -78h-67v-119h-75v97q-95 -50 -183 -140v96q67 81 183 131z" />
    <glyph glyph-name="J" unicode="J" horiz-adv-x="280" 
d="M90 270v555h-40v75h180v-75h-50v-825z" />
    <glyph glyph-name="K" unicode="K" horiz-adv-x="375" 
d="M278 231v-231h-75v200q-51 -11 -135 -10l50 81q47 -3 85 13v76h-125l20 75h105v34q-60 88 -153 209v116l153 -208v239h-35v75h145v-75h-35v-346q25 -39 34 -61q13 -33 13 -68q0 -40 -18 -83q-9 -21 -29 -36z" />
    <glyph glyph-name="L" unicode="L" horiz-adv-x="426" 
d="M193 671v-671h-75v180l-47 -20v75l47 20v145l-47 -20v75l47 20v183h-68l1 78h67v119h75v-97q95 50 183 140v-96q-67 -81 -183 -131z" />
    <glyph glyph-name="M" unicode="M" horiz-adv-x="400" 
d="M175 519v-210l-125 55zM350 900v-75h-70v-750h70v-75h-145v900h145z" />
    <glyph glyph-name="N" unicode="N" horiz-adv-x="400" 
d="M205 900h145v-75h-70v-825h-75v900zM175 519v-210l-125 55z" />
    <glyph glyph-name="O" unicode="O" horiz-adv-x="360" 
d="M200 0v335h-75v-125l-75 50v590l75 50v-490h75v490h110v-75h-30v-750h30v-75h-110z" />
    <glyph glyph-name="P" unicode="P" horiz-adv-x="372" 
d="M130 772h17v-674h-48v112h-49zM252 825v-750h70v-75h-135v900z" />
    <glyph glyph-name="Q" unicode="Q" horiz-adv-x="393" 
d="M218 525l-168 154v65l168 -144v225h-32v75h157v-75h-50v-445h50l-50 -292v-88h-75v525z" />
    <glyph glyph-name="R" unicode="R" horiz-adv-x="347" 
d="M172 140v-140h-75v171q-20 15 -29 36q-18 43 -18 98q0 47 13 103q16 65 34 108v309h-25v75h125v-75h-25v-251h48v-74h-48v-75l125 -50v-75l-125 50v-126q38 -36 125 -43v-71q-74 -1 -125 30z" />
    <glyph glyph-name="S" unicode="S" horiz-adv-x="426" 
d="M193 671v-671h-75v658h-68l1 78h67v119h75v-97q95 50 183 140v-96q-67 -81 -183 -131z" />
    <glyph glyph-name="T" unicode="T" 
d="M300 0h-250v210l150 330v360h75v-370l-150 -330v-115h175v-85z" />
    <glyph glyph-name="U" unicode="U" 
d="M150 900v-400h125v-75h-125v-350h75v85h75v-160h-250v75h25v750h-25v75h100z" />
    <glyph glyph-name="V" unicode="V" horiz-adv-x="426" 
d="M233 227v671h75v-180l47 20v-75l-47 -20v-145l47 20v-75l-47 -20v-183h68l-1 -78h-67v-119h-75v97q-95 -50 -183 -140v96q67 81 183 131z" />
    <glyph glyph-name="W" unicode="W" 
d="M50 85h175v115l-150 330v370h75v-360l150 -330v-210h-250v85z" />
    <glyph glyph-name="X" unicode="X" horiz-adv-x="395" 
d="M50 0v160h55v-85h60v750h-35v75h150v-75h-40v-750h25l80 -75h-295z" />
    <glyph glyph-name="Y" unicode="Y" horiz-adv-x="360" 
d="M150 0l-75 70v755h-25v75h150v-75h-50v-290h160v-75h-160v-460z" />
    <glyph glyph-name="Z" unicode="Z" horiz-adv-x="430" 
d="M50 110v150h75v-35h60v600h-45v75h120v-675h67l53 105v-286l-53 106h-67v-150l-75 44v106h-60v-40h-75z" />
    <glyph glyph-name="bracketleft" unicode="[" 
d="M50 900h250v-75h-175v-750h175v-75h-250v900z" />
    <glyph glyph-name="backslash" unicode="\" horiz-adv-x="345" 
d="M295 0h-75l-170 900h75z" />
    <glyph glyph-name="bracketright" unicode="]" 
d="M300 0h-250v75h175v750h-175v75h250v-900z" />
    <glyph glyph-name="asciicircum" unicode="^" horiz-adv-x="567" 
d="M517 670l-233 130l-234 -130v100l234 130l233 -130v-100z" />
    <glyph glyph-name="underscore" unicode="_" horiz-adv-x="400" 
d="M50 0v75h300v-75h-300z" />
    <glyph glyph-name="grave" unicode="`" horiz-adv-x="252" 
d="M202 888v-152l-152 152h152z" />
    <glyph glyph-name="a" unicode="a" horiz-adv-x="295" 
d="M155 130l30 770h10l39 -819h11v-81h-15q-75 0 -75 57v73zM112 840h13v-630h-37v105h-38z" />
    <glyph glyph-name="b" unicode="b" horiz-adv-x="305" 
d="M175 0h-75v88l-50 292h50v445h-50v75h170l-45 -75v-225h80v-75h-80v-525z" />
    <glyph glyph-name="c" unicode="c" horiz-adv-x="425" 
d="M300 0h-250v210l150 330v360h75v-60l100 20v-75l-100 -20v-75h100v-75h-100v-85l-150 -330v-115h175v-85z" />
    <glyph glyph-name="d" unicode="d" horiz-adv-x="430" 
d="M50 900h75v-825h50v750h-25v75h125v-75h-25v-750h70l60 -75h-330v900z" />
    <glyph glyph-name="e" unicode="e" horiz-adv-x="312" 
d="M197 600l-67 -600l-80 600l30 60v165h-25v75l207 -75h-95v-165z" />
    <glyph glyph-name="f" unicode="f" horiz-adv-x="320" 
d="M80 650v175h-25v75h215v-160l-55 85h-60v-175h30l-67 -650l-68 650h30z" />
    <glyph glyph-name="g" unicode="g" horiz-adv-x="660" 
d="M50 165l152 152v-152h-152zM360 85h175v115l-150 330v370h75v-360l150 -330v-210h-250v85zM240 165l152 152v-152h-152z" />
    <glyph glyph-name="h" unicode="h" horiz-adv-x="651" 
d="M121 525h-70l-1 75h146v-40h320v115l70 -50v-575l-75 -50v485h-315v-485h-125l50 75v450zM449 736v152l152 -152h-152zM259 736v152l152 -152h-152zM69 736v152l152 -152h-152z" />
    <glyph glyph-name="i" unicode="i" horiz-adv-x="426" 
d="M233 227v671h75v-658h68l-1 -78h-67v-119h-75v97q-95 -50 -183 -140v96q67 81 183 131z" />
    <glyph glyph-name="j" unicode="j" horiz-adv-x="280" 
d="M90 270v555h-40v75h180v-75h-50v-825z" />
    <glyph glyph-name="k" unicode="k" horiz-adv-x="375" 
d="M278 231v-231h-75v200q-51 -11 -135 -10l50 81q47 -3 85 13v76h-125l20 75h105v34q-60 88 -153 209v116l153 -208v239h-35v75h145v-75h-35v-346q25 -39 34 -61q13 -33 13 -68q0 -40 -18 -83q-9 -21 -29 -36z" />
    <glyph glyph-name="l" unicode="l" horiz-adv-x="426" 
d="M193 671v-671h-75v180l-47 -20v75l47 20v145l-47 -20v75l47 20v183h-68l1 78h67v119h75v-97q95 50 183 140v-96q-67 -81 -183 -131z" />
    <glyph glyph-name="m" unicode="m" horiz-adv-x="400" 
d="M175 519v-210l-125 55zM350 900v-75h-70v-750h70v-75h-145v900h145z" />
    <glyph glyph-name="n" unicode="n" horiz-adv-x="400" 
d="M205 900h145v-75h-70v-825h-75v900zM175 519v-210l-125 55z" />
    <glyph glyph-name="o" unicode="o" horiz-adv-x="360" 
d="M200 0v335h-75v-125l-75 50v590l75 50v-490h75v490h110v-75h-30v-750h30v-75h-110z" />
    <glyph glyph-name="p" unicode="p" horiz-adv-x="372" 
d="M130 772h17v-674h-48v112h-49zM252 825v-750h70v-75h-135v900z" />
    <glyph glyph-name="q" unicode="q" horiz-adv-x="393" 
d="M218 525l-168 154v65l168 -144v225h-32v75h157v-75h-50v-445h50l-50 -292v-88h-75v525z" />
    <glyph glyph-name="r" unicode="r" horiz-adv-x="347" 
d="M172 140v-140h-75v171q-20 15 -29 36q-18 43 -18 98q0 47 13 103q16 65 34 108v309h-25v75h125v-75h-25v-251h48v-74h-48v-75l125 -50v-75l-125 50v-126q38 -36 125 -43v-71q-74 -1 -125 30z" />
    <glyph glyph-name="s" unicode="s" horiz-adv-x="426" 
d="M193 671v-671h-75v658h-68l1 78h67v119h75v-97q95 50 183 140v-96q-67 -81 -183 -131z" />
    <glyph glyph-name="t" unicode="t" 
d="M300 0h-250v210l150 330v360h75v-370l-150 -330v-115h175v-85z" />
    <glyph glyph-name="u" unicode="u" 
d="M150 900v-400h125v-75h-125v-350h75v85h75v-160h-250v75h25v750h-25v75h100z" />
    <glyph glyph-name="v" unicode="v" horiz-adv-x="426" 
d="M233 227v671h75v-180l47 20v-75l-47 -20v-145l47 20v-75l-47 -20v-183h68l-1 -78h-67v-119h-75v97q-95 -50 -183 -140v96q67 81 183 131z" />
    <glyph glyph-name="w" unicode="w" 
d="M50 85h175v115l-150 330v370h75v-360l150 -330v-210h-250v85z" />
    <glyph glyph-name="x" unicode="x" horiz-adv-x="395" 
d="M50 0v160h55v-85h60v750h-35v75h150v-75h-40v-750h25l80 -75h-295z" />
    <glyph glyph-name="y" unicode="y" horiz-adv-x="360" 
d="M150 0l-75 70v755h-25v75h150v-75h-50v-290h160v-75h-160v-460z" />
    <glyph glyph-name="z" unicode="z" horiz-adv-x="430" 
d="M50 110v150h75v-35h60v600h-45v75h120v-675h67l53 105v-286l-53 106h-67v-150l-75 44v106h-60v-40h-75z" />
    <glyph glyph-name="braceleft" unicode="{" horiz-adv-x="480" 
d="M180 412h-128l-2 75h130v413h250v-75h-175v-750h175v-75h-250v412z" />
    <glyph glyph-name="bar" unicode="|" horiz-adv-x="175" 
d="M50 900h75v-900h-75v900z" />
    <glyph glyph-name="braceright" unicode="}" horiz-adv-x="480" 
d="M300 0h-250v75h175v750h-175v75h250v-413h130l-2 -75h-128v-412z" />
    <glyph glyph-name="asciitilde" unicode="~" horiz-adv-x="549" 
d="M281 853v1q90 -62 175 12l43 -38q-71 -69 -144 -69q-47 0 -95 28v-1q-90 62 -167 13l-43 38q60 48 124 48q52 0 107 -32z" />
    <glyph glyph-name="plus" unicode="+" horiz-adv-x="342" 
d="M134 364h-84v75h84v84h75v-84h83v-75h-83v-83h-75v83z" />
    <glyph glyph-name="equal" unicode="=" horiz-adv-x="342" 
d="M50 494v75h242v-75h-242zM50 324v75h242v-75h-242z" />
    <glyph glyph-name="greater" unicode="&#x3e;" horiz-adv-x="460" 
d="M150 900l260 -450l-260 -450h-100l260 450l-260 450h100z" />
    <glyph glyph-name="less" unicode="&#x3c;" horiz-adv-x="460" 
d="M410 900l-260 -450l260 -450h-100l-260 450l260 450h100z" />
    <glyph glyph-name="quotedblleft" unicode="&#x201c;" horiz-adv-x="442" 
d="M202 888v-152l-152 152h152zM392 888v-152l-152 152h152z" />
    <glyph glyph-name="quotedblright" unicode="&#x201d;" horiz-adv-x="442" 
d="M392 888l-152 -152v152h152zM202 888l-152 -152v152h152z" />
    <glyph glyph-name="quoteleft" unicode="&#x2018;" horiz-adv-x="252" 
d="M202 888v-152l-152 152h152z" />
    <glyph glyph-name="quoteright" unicode="&#x2019;" horiz-adv-x="252" 
d="M202 888l-152 -152v152h152z" />
    </font>
</defs>
</svg>
